<?xml version="1.0" ?><svg data-name="Social Media Icons" id="Social_Media_Icons" viewBox="0 0 512 512" xmlns="http://www.w3.org/2000/svg"><defs><style>.cls-1{fill:#315a9e;}</style></defs><g id="Facebook"><path class="cls-1" d="M382.4,10.72V91.47a10.58,10.58,0,0,1-10.76,10.58q-.7,0-1.41,0c-20.63-.33-51.8-.83-63.15,10.33-6.3,6.2-9.78,19.91-9.78,38.62v38.28h65.75c10.64,0,17.73,8.55,15.76,19q-6.6,34.88-13.19,69.75a16.13,16.13,0,0,1-15.86,13.13H297.3V488.57c0,12.94-7.18,23.43-16,23.43H211.45c-8.85,0-16-10.49-16-23.43V291.14H145.74A16.14,16.14,0,0,1,129.6,275V205.39a16.14,16.14,0,0,1,16.14-16.14h49.67V151c0-47.58,13.54-85,40.22-111.25C277.4-1.38,336.55-.42,371.89.15H372A10.57,10.57,0,0,1,382.4,10.72Z"/></g></svg>