<?xml version="1.0" ?><svg data-name="Social Media Icons" id="Social_Media_Icons" viewBox="0 0 512 512" xmlns="http://www.w3.org/2000/svg"><defs><style>.cls-1{fill:#0079ba;}</style></defs><g id="Linkedin"><circle class="cls-1" cx="60.98" cy="60.6" r="60.6"/><path class="cls-1" d="M7.84,185.14V494.42A17.58,17.58,0,0,0,25.42,512H95.6a17.58,17.58,0,0,0,17.58-17.58V186.1a17.57,17.57,0,0,0-17.34-17.57l-70.18-1A17.57,17.57,0,0,0,7.84,185.14Z"/><path class="cls-1" d="M284.17,216.63a114.5,114.5,0,0,1,33.15-35.23c49-33.28,123.66-24.32,161.64,14.48,19.63,20.06,30.18,42.79,31.52,89.29,2,70.52.87,169.89.28,209.52A17.57,17.57,0,0,1,493.19,512h-69a17.58,17.58,0,0,1-17.58-17.58V309.22s5.29-53.59-58.2-53.59-60.12,51.66-60.12,51.66L286.5,494.38a17.58,17.58,0,0,1-17.78,17.41L198.37,511A17.58,17.58,0,0,1,181,493.38v-308a17.57,17.57,0,0,1,17.57-17.57h67.25a17.57,17.57,0,0,1,17.57,17.14Z"/></g></svg>