<svg xmlns="http://www.w3.org/2000/svg" xmlns:xlink="http://www.w3.org/1999/xlink" width="1000" zoomAndPan="magnify" viewBox="0 0 750 809.999993" height="1080" preserveAspectRatio="xMidYMid meet" version="1.0"><defs><clipPath id="0549deb1ca"><path d="M 506.625 187.5 L 731.625 187.5 L 731.625 412.5 L 506.625 412.5 Z M 506.625 187.5 " clip-rule="nonzero"/></clipPath><clipPath id="672413f1bc"><path d="M 619.125 187.5 C 556.992188 187.5 506.625 237.867188 506.625 300 C 506.625 362.132812 556.992188 412.5 619.125 412.5 C 681.257812 412.5 731.625 362.132812 731.625 300 C 731.625 237.867188 681.257812 187.5 619.125 187.5 " clip-rule="nonzero"/></clipPath><clipPath id="3d79ea6c8d"><path d="M 619.875 75 L 720.375 75 L 720.375 300 L 619.875 300 Z M 619.875 75 " clip-rule="nonzero"/></clipPath><clipPath id="bc134fb232"><path d="M 55.828125 75 L 280.828125 75 L 280.828125 300 L 55.828125 300 Z M 55.828125 75 " clip-rule="nonzero"/></clipPath><clipPath id="02e3ce7814"><path d="M 168.328125 75 C 106.195312 75 55.828125 125.367188 55.828125 187.5 C 55.828125 249.632812 106.195312 300 168.328125 300 C 230.460938 300 280.828125 249.632812 280.828125 187.5 C 280.828125 125.367188 230.460938 75 168.328125 75 " clip-rule="nonzero"/></clipPath><clipPath id="0471f715c3"><path d="M 55.828125 366.847656 L 280.828125 366.847656 L 280.828125 591.847656 L 55.828125 591.847656 Z M 55.828125 366.847656 " clip-rule="nonzero"/></clipPath><clipPath id="a2d1821210"><path d="M 168.328125 366.847656 C 106.195312 366.847656 55.828125 417.214844 55.828125 479.347656 C 55.828125 541.480469 106.195312 591.847656 168.328125 591.847656 C 230.460938 591.847656 280.828125 541.480469 280.828125 479.347656 C 280.828125 417.214844 230.460938 366.847656 168.328125 366.847656 " clip-rule="nonzero"/></clipPath><clipPath id="53884cfc5a"><path d="M 67.078125 181.746094 L 269.578125 181.746094 L 269.578125 479.496094 L 67.078125 479.496094 Z M 67.078125 181.746094 " clip-rule="nonzero"/></clipPath><clipPath id="4339f1ca41"><path d="M 487.917969 553.148438 L 750 553.148438 L 750 810 L 487.917969 810 Z M 487.917969 553.148438 " clip-rule="nonzero"/></clipPath><clipPath id="da5627c77e"><path d="M 649.917969 553.148438 C 560.449219 553.148438 487.917969 625.679688 487.917969 715.148438 C 487.917969 804.617188 560.449219 877.148438 649.917969 877.148438 C 739.390625 877.148438 811.917969 804.617188 811.917969 715.148438 C 811.917969 625.679688 739.390625 553.148438 649.917969 553.148438 " clip-rule="nonzero"/></clipPath><clipPath id="d53c8f5f74"><path d="M 513.34375 578.574219 L 750 578.574219 L 750 810 L 513.34375 810 Z M 513.34375 578.574219 " clip-rule="nonzero"/></clipPath><clipPath id="d6d782b0a5"><path d="M 649.84375 578.574219 C 574.457031 578.574219 513.34375 639.6875 513.34375 715.074219 C 513.34375 790.460938 574.457031 851.574219 649.84375 851.574219 C 725.230469 851.574219 786.34375 790.460938 786.34375 715.074219 C 786.34375 639.6875 725.230469 578.574219 649.84375 578.574219 " clip-rule="nonzero"/></clipPath><clipPath id="a58faa5d9b"><path d="M 306.328125 412.5 L 531.328125 412.5 L 531.328125 637.5 L 306.328125 637.5 Z M 306.328125 412.5 " clip-rule="nonzero"/></clipPath><clipPath id="864dd535ac"><path d="M 418.828125 637.5 C 480.960938 637.5 531.328125 587.132812 531.328125 525 C 531.328125 462.867188 480.960938 412.5 418.828125 412.5 C 356.695312 412.5 306.328125 462.867188 306.328125 525 C 306.328125 587.132812 356.695312 637.5 418.828125 637.5 " clip-rule="nonzero"/></clipPath><clipPath id="b77f9f29f5"><path d="M 317.578125 525 L 418.078125 525 L 418.078125 750 L 317.578125 750 Z M 317.578125 525 " clip-rule="nonzero"/></clipPath><clipPath id="b0572dd6aa"><path d="M 55.828125 506.4375 L 280.828125 506.4375 L 280.828125 731.4375 L 55.828125 731.4375 Z M 55.828125 506.4375 " clip-rule="nonzero"/></clipPath><clipPath id="8e783382ff"><path d="M 168.328125 506.4375 C 106.195312 506.4375 55.828125 556.804688 55.828125 618.9375 C 55.828125 681.066406 106.195312 731.4375 168.328125 731.4375 C 230.460938 731.4375 280.828125 681.066406 280.828125 618.9375 C 280.828125 556.804688 230.460938 506.4375 168.328125 506.4375 " clip-rule="nonzero"/></clipPath><clipPath id="a1e5838fb5"><path d="M 499.378906 0 L 637.378906 0 L 637.378906 74.925781 L 499.378906 74.925781 Z M 499.378906 0 " clip-rule="nonzero"/></clipPath><clipPath id="0142afe31b"><path d="M 568.378906 -63.074219 C 530.269531 -63.074219 499.378906 -32.179688 499.378906 5.925781 C 499.378906 44.035156 530.269531 74.925781 568.378906 74.925781 C 606.484375 74.925781 637.378906 44.035156 637.378906 5.925781 C 637.378906 -32.179688 606.484375 -63.074219 568.378906 -63.074219 " clip-rule="nonzero"/></clipPath></defs><path stroke-linecap="butt" transform="matrix(-0.00000000000000181, 11.255758, -11.249999, -0.000000000000001809, 725.997735, 0.00221727)" fill="none" stroke-linejoin="miter" d="M 0.000150055 0.000145864 L 26.453624 0.000145864 " stroke="#7ed957" stroke-width="1" stroke-opacity="1" stroke-miterlimit="4"/><g clip-path="url(#0549deb1ca)"><g clip-path="url(#672413f1bc)"><path stroke-linecap="butt" transform="matrix(0.75, 0, 0, 0.75, 506.624978, 187.500011)" fill="none" stroke-linejoin="miter" d="M 150.000037 -0.0000140895 C 67.156283 -0.0000140895 0.0000296625 67.156239 0.0000296625 149.999993 C 0.0000296625 232.843748 67.156283 300.000001 150.000037 300.000001 C 232.843791 300.000001 300.000045 232.843748 300.000045 149.999993 C 300.000045 67.156239 232.843791 -0.0000140895 150.000037 -0.0000140895 " stroke="#7ed957" stroke-width="30" stroke-opacity="1" stroke-miterlimit="4"/></g></g><g clip-path="url(#3d79ea6c8d)"><path fill="#000000" d="M 619.875 75 L 720.375 75 L 720.375 300 L 619.875 300 L 619.875 75 " fill-opacity="1" fill-rule="nonzero"/></g><path stroke-linecap="butt" transform="matrix(-0.00000000000000181, 11.255758, -11.249999, -0.000000000000001809, 275.20042, 181.747321)" fill="none" stroke-linejoin="miter" d="M -0.000109056 0.00010676 L 26.453365 0.00010676 " stroke="#f4f83f" stroke-width="1" stroke-opacity="1" stroke-miterlimit="4"/><g clip-path="url(#bc134fb232)"><g clip-path="url(#02e3ce7814)"><path stroke-linecap="butt" transform="matrix(0.75, 0, 0, 0.75, 55.827598, 75.000016)" fill="none" stroke-linejoin="miter" d="M 150.00071 -0.0000216358 C 67.156956 -0.0000216358 0.000702624 67.156232 0.000702624 149.999986 C 0.000702624 232.84374 67.156956 299.999993 150.00071 299.999993 C 232.844464 299.999993 300.000718 232.84374 300.000718 149.999986 C 300.000718 67.156232 232.844464 -0.0000216358 150.00071 -0.0000216358 " stroke="#f4f83f" stroke-width="30" stroke-opacity="1" stroke-miterlimit="4"/></g></g><g clip-path="url(#0471f715c3)"><g clip-path="url(#a2d1821210)"><path stroke-linecap="butt" transform="matrix(0.75, 0, 0, 0.75, 55.827598, 366.847151)" fill="none" stroke-linejoin="miter" d="M 150.00071 0.000673474 C 67.156956 0.000673474 0.000702624 67.156927 0.000702624 150.000681 C 0.000702624 232.844435 67.156956 300.000689 150.00071 300.000689 C 232.844464 300.000689 300.000718 232.844435 300.000718 150.000681 C 300.000718 67.156927 232.844464 0.000673474 150.00071 0.000673474 " stroke="#f4f83f" stroke-width="30" stroke-opacity="1" stroke-miterlimit="4"/></g></g><path stroke-linecap="butt" transform="matrix(-0.00000000000000181, 11.255758, -11.249999, -0.000000000000001809, 61.450409, 187.502209)" fill="none" stroke-linejoin="miter" d="M 0.000150792 0.000105795 L 26.453625 0.000105795 " stroke="#f4f83f" stroke-width="1" stroke-opacity="1" stroke-miterlimit="4"/><g clip-path="url(#53884cfc5a)"><path fill="#000000" d="M 67.078125 181.746094 L 269.574219 181.746094 L 269.574219 479.496094 L 67.078125 479.496094 L 67.078125 181.746094 " fill-opacity="1" fill-rule="nonzero"/></g><g clip-path="url(#4339f1ca41)"><g clip-path="url(#da5627c77e)"><path stroke-linecap="butt" transform="matrix(0.75057, 0, 0, 0.75057, 487.918611, 553.148128)" fill="none" stroke-linejoin="miter" d="M 215.835113 0.000412124 C 96.634037 0.000412124 -0.000855276 96.635305 -0.000855276 215.836381 C -0.000855276 335.037457 96.634037 431.672349 215.835113 431.672349 C 335.041394 431.672349 431.671082 335.037457 431.671082 215.836381 C 431.671082 96.635305 335.041394 0.000412124 215.835113 0.000412124 " stroke="#ff5757" stroke-width="30" stroke-opacity="1" stroke-miterlimit="4"/></g></g><g clip-path="url(#d53c8f5f74)"><g clip-path="url(#d6d782b0a5)"><path stroke-linecap="butt" transform="matrix(0.750258, 0, 0, 0.750258, 513.343753, 578.573319)" fill="none" stroke-linejoin="miter" d="M 181.9375 0.0011994 C 81.45639 0.0011994 -0.00000455192 81.457594 -0.00000455192 181.938704 C -0.00000455192 282.419813 81.45639 363.876208 181.9375 363.876208 C 282.418609 363.876208 363.875004 282.419813 363.875004 181.938704 C 363.875004 81.457594 282.418609 0.0011994 181.9375 0.0011994 " stroke="#7ed957" stroke-width="30" stroke-opacity="1" stroke-miterlimit="4"/></g></g><path stroke-linecap="butt" transform="matrix(0.000000000000000689, -11.255758, 11.249999, 0.000000000000000689, 311.950418, 824.997746)" fill="none" stroke-linejoin="miter" d="M 0.000146836 -0.000106595 L 26.453621 -0.000106595 " stroke="#7ed957" stroke-width="1" stroke-opacity="1" stroke-miterlimit="4"/><g clip-path="url(#a58faa5d9b)"><g clip-path="url(#864dd535ac)"><path stroke-linecap="butt" transform="matrix(-0.75, -0.000000000000000092, 0.000000000000000092, -0.75, 531.327577, 637.499988)" fill="none" stroke-linejoin="miter" d="M 149.999276 -0.0000160957 C 67.155522 -0.0000160957 -0.00073132 67.156237 -0.00073132 149.999991 C -0.00073132 232.843746 67.155522 299.999999 149.999276 299.999999 C 232.84303 299.999999 299.999284 232.843746 299.999284 149.999991 C 299.999284 67.156237 232.84303 -0.0000160957 149.999276 -0.0000160957 " stroke="#7ed957" stroke-width="30" stroke-opacity="1" stroke-miterlimit="4"/></g></g><g clip-path="url(#b77f9f29f5)"><path fill="#000000" d="M 418.078125 750 L 317.578125 750 L 317.578125 525 L 418.078125 525 L 418.078125 750 " fill-opacity="1" fill-rule="nonzero"/></g><path stroke-linecap="round" transform="matrix(-11.227848, -0.000000000000001375, 0.000000000000001378, -11.249999, 786.244956, 512.06073)" fill="none" stroke-linejoin="miter" d="M 0.499841 -0.000157312 L 12.726694 -0.000157312 " stroke="#f4f83f" stroke-width="1" stroke-opacity="1" stroke-miterlimit="4"/><path stroke-linecap="round" transform="matrix(-11.227848, -0.000000000000001375, 0.000000000000001378, -11.249999, 767.917933, 479.767748)" fill="none" stroke-linejoin="miter" d="M 0.49994 -0.000158523 L 12.726793 -0.000158523 " stroke="#f4f83f" stroke-width="1" stroke-opacity="1" stroke-miterlimit="4"/><path stroke-linecap="round" transform="matrix(-11.227848, -0.000000000000001375, 0.000000000000001378, -11.249999, 755.017405, 448.946445)" fill="none" stroke-linejoin="miter" d="M 0.500101 0.000100703 L 12.726606 0.000100703 " stroke="#f4f83f" stroke-width="1" stroke-opacity="1" stroke-miterlimit="4"/><g clip-path="url(#b0572dd6aa)"><g clip-path="url(#8e783382ff)"><path stroke-linecap="butt" transform="matrix(0.75, 0, 0, 0.75, 55.827598, 506.435731)" fill="none" stroke-linejoin="miter" d="M 150.00071 0.0023593 C 67.156956 0.0023593 0.000702624 67.158613 0.000702624 150.002367 C 0.000702624 232.840913 67.156956 300.002374 150.00071 300.002374 C 232.844464 300.002374 300.000718 232.840913 300.000718 150.002367 C 300.000718 67.158613 232.844464 0.0023593 150.00071 0.0023593 " stroke="#7ed957" stroke-width="30" stroke-opacity="1" stroke-miterlimit="4"/></g></g><path stroke-linecap="round" transform="matrix(7.429303, 8.456029, -8.451472, 7.4253, 80.598873, 541.082801)" fill="none" stroke-linejoin="miter" d="M 0.500052 0.000167242 L 1.43325 0.0000975475 " stroke="#f4f83f" stroke-width="1" stroke-opacity="1" stroke-miterlimit="4"/><path stroke-linecap="round" transform="matrix(-0.00000000000000181, 11.255758, -11.249999, -0.000000000000001809, 695.171224, 0.00221727)" fill="none" stroke-linejoin="miter" d="M 0.499894 -0.0000578429 L 25.953533 -0.0000578429 " stroke="#f4f83f" stroke-width="1" stroke-opacity="1" stroke-miterlimit="4"/><path stroke-linecap="round" transform="matrix(-0.00000000000000181, 11.255758, -11.249999, -0.000000000000001809, 415.423806, -73.798805)" fill="none" stroke-linejoin="miter" d="M 0.499916 0.000171675 L 25.953555 0.000171675 " stroke="#ff5757" stroke-width="1" stroke-opacity="1" stroke-miterlimit="4"/><path stroke-linecap="round" transform="matrix(-11.255758, -0.000000000000001378, 0.000000000000001378, -11.249999, 466.374244, 30.760386)" fill="none" stroke-linejoin="miter" d="M 0.500024 -0.000118469 L 25.953663 -0.000118469 " stroke="#7ed957" stroke-width="1" stroke-opacity="1" stroke-miterlimit="4"/><path stroke-linecap="round" transform="matrix(-0.00000000000000181, 11.255758, -11.249999, -0.000000000000001809, 460.75138, 0.00221727)" fill="none" stroke-linejoin="miter" d="M 0.499894 0.000122672 L 25.953533 0.000122672 " stroke="#ff5757" stroke-width="1" stroke-opacity="1" stroke-miterlimit="4"/><path stroke-linecap="round" transform="matrix(-0.00000000000000181, 11.255758, -11.249999, -0.000000000000001809, 371.085863, -148.798801)" fill="none" stroke-linejoin="miter" d="M 0.499915 -0.00000662472 L 25.953554 -0.00000662472 " stroke="#ff5757" stroke-width="1" stroke-opacity="1" stroke-miterlimit="4"/><g clip-path="url(#a1e5838fb5)"><g clip-path="url(#0142afe31b)"><path stroke-linecap="butt" transform="matrix(0.749618, 0, 0, 0.749618, 499.378562, -63.073438)" fill="none" stroke-linejoin="miter" d="M 92.047338 -0.00104096 C 41.208946 -0.00104096 0.000459077 41.212657 0.000459077 92.045838 C 0.000459077 142.88423 41.208946 184.092718 92.047338 184.092718 C 142.880519 184.092718 184.094218 142.88423 184.094218 92.045838 C 184.094218 41.212657 142.880519 -0.00104096 92.047338 -0.00104096 " stroke="#7ed957" stroke-width="24" stroke-opacity="1" stroke-miterlimit="4"/></g></g><path stroke-linecap="round" transform="matrix(-11.249711, -0.000000000000001378, 0.000000000000001378, -11.249999, 513.339289, 784.037621)" fill="none" stroke-linejoin="miter" d="M 0.499964 -0.000128173 L 40.167997 -0.000128173 " stroke="#ff5757" stroke-width="1" stroke-opacity="1" stroke-miterlimit="4"/><path stroke-linecap="round" transform="matrix(-0.00000000000000181, 11.255758, -11.249999, -0.000000000000001809, 340.40984, 525.002226)" fill="none" stroke-linejoin="miter" d="M 0.499894 -0.0000281364 L 25.953532 -0.0000281364 " stroke="#f4f83f" stroke-width="1" stroke-opacity="1" stroke-miterlimit="4"/></svg>