<svg xmlns="http://www.w3.org/2000/svg" xmlns:xlink="http://www.w3.org/1999/xlink" width="1200" zoomAndPan="magnify" viewBox="0 0 900 225" height="300" preserveAspectRatio="xMidYMid meet" version="1.0"><defs><g/></defs><g fill="#141516" fill-opacity="1"><g transform="translate(-0.560872, 216.716956)"><g><path d="M 143.746094 -182.949219 C 138.257812 -182.949219 136.167969 -180.074219 137.996094 -176.152344 L 161.519531 -123.621094 L 119.960938 -30.316406 L 54.882812 -176.152344 C 53.054688 -180.074219 50.179688 -182.949219 45.476562 -182.949219 L 7.316406 -182.949219 C 3.136719 -182.949219 1.828125 -179.550781 3.136719 -176.152344 L 78.929688 -6.796875 C 80.496094 -3.136719 83.894531 0 88.339844 0 L 104.28125 0 C 107.941406 0 111.597656 -3.136719 113.167969 -6.796875 L 188.960938 -176.152344 C 190.265625 -179.550781 188.960938 -182.949219 184.777344 -182.949219 Z M 143.746094 -182.949219 "/></g></g></g><g fill="#141516" fill-opacity="1"><g transform="translate(165.399715, 216.716956)"><g><path d="M 28.488281 -144.269531 C 24.304688 -144.269531 22.738281 -141.65625 22.738281 -137.472656 L 22.738281 -6.796875 C 22.738281 -2.613281 24.304688 0 28.488281 0 L 61.679688 0 C 65.863281 0 67.429688 -2.613281 67.429688 -6.796875 L 67.429688 -137.472656 C 67.429688 -141.65625 65.863281 -144.269531 61.679688 -144.269531 Z M 20.910156 -182.425781 C 20.910156 -169.097656 31.625 -158.382812 44.953125 -158.382812 C 58.28125 -158.382812 68.996094 -169.097656 68.996094 -182.425781 C 68.996094 -195.753906 58.28125 -206.472656 44.953125 -206.472656 C 31.625 -206.472656 20.910156 -195.753906 20.910156 -182.425781 Z M 20.910156 -182.425781 "/></g></g></g><g fill="#141516" fill-opacity="1"><g transform="translate(229.170335, 216.716956)"><g><path d="M 12.023438 -144.269531 C 10.714844 -144.269531 9.671875 -143.484375 9.671875 -142.4375 L 9.671875 -141.917969 C 9.671875 -140.871094 9.929688 -139.5625 11.5 -137.472656 L 20.910156 -125.191406 L 20.910156 -6.796875 C 20.910156 -2.613281 22.476562 0 26.660156 0 L 64.03125 0 C 65.339844 0 65.863281 -0.785156 65.863281 -1.828125 L 65.863281 -3.136719 C 65.863281 -4.964844 65.601562 -6.011719 64.03125 -8.363281 L 24.566406 -60.113281 L 24.566406 -120.222656 L 111.335938 -6.796875 C 114.996094 -2.351562 118.394531 0 121.792969 0 L 131.722656 0 C 135.90625 0 137.472656 -2.613281 137.472656 -6.796875 L 137.472656 -137.472656 C 137.472656 -141.65625 135.90625 -144.269531 131.722656 -144.269531 L 101.929688 -144.269531 C 100.621094 -144.269531 100.097656 -143.484375 100.097656 -142.4375 L 100.097656 -141.132812 C 100.097656 -139.300781 100.097656 -137.996094 101.929688 -135.90625 L 133.8125 -94.089844 L 133.8125 -47.304688 L 133.292969 -47.304688 L 63.25 -138.78125 C 59.851562 -142.699219 57.5 -144.269531 53.578125 -144.269531 Z M 12.023438 -144.269531 "/></g></g></g><g fill="#141516" fill-opacity="1"><g transform="translate(361.416111, 216.716956)"><g><path d="M 28.488281 -144.269531 C 24.304688 -144.269531 22.738281 -141.65625 22.738281 -137.472656 L 22.738281 -6.796875 C 22.738281 -2.613281 24.304688 0 28.488281 0 L 61.679688 0 C 65.863281 0 67.429688 -2.613281 67.429688 -6.796875 L 67.429688 -137.472656 C 67.429688 -141.65625 65.863281 -144.269531 61.679688 -144.269531 Z M 20.910156 -182.425781 C 20.910156 -169.097656 31.625 -158.382812 44.953125 -158.382812 C 58.28125 -158.382812 68.996094 -169.097656 68.996094 -182.425781 C 68.996094 -195.753906 58.28125 -206.472656 44.953125 -206.472656 C 31.625 -206.472656 20.910156 -195.753906 20.910156 -182.425781 Z M 20.910156 -182.425781 "/></g></g></g><g fill="#141516" fill-opacity="1"><g transform="translate(425.18673, 216.716956)"><g><path d="M 141.65625 0 C 146.359375 -0.523438 147.40625 -2.613281 147.40625 -6.796875 L 147.40625 -40.773438 C 147.40625 -44.429688 146.359375 -46 143.746094 -47.042969 L 141.132812 -48.351562 C 140.085938 -48.613281 139.042969 -48.875 137.996094 -48.875 C 135.90625 -48.875 133.8125 -48.089844 131.984375 -46.261719 L 94.609375 -1.046875 C 74.746094 -1.046875 56.714844 -31.886719 56.714844 -72.65625 C 56.714844 -113.429688 75.269531 -143.746094 95.132812 -143.746094 L 132.507812 -98.53125 C 134.335938 -96.703125 136.167969 -95.917969 138.257812 -95.917969 C 139.300781 -95.917969 140.085938 -96.179688 141.132812 -96.441406 L 143.746094 -97.746094 C 146.359375 -98.792969 147.40625 -100.359375 147.40625 -104.019531 L 147.40625 -137.996094 C 147.40625 -142.175781 146.359375 -144.269531 141.65625 -144.792969 L 91.472656 -146.882812 C 50.179688 -146.882812 10.453125 -136.167969 10.453125 -72.65625 C 10.453125 -9.148438 49.65625 2.089844 90.953125 2.089844 Z M 141.65625 0 "/></g></g></g><g fill="#141516" fill-opacity="1"><g transform="translate(563.443682, 216.716956)"><g><path d="M 28.488281 -144.269531 C 24.304688 -144.269531 22.738281 -141.65625 22.738281 -137.472656 L 22.738281 -6.796875 C 22.738281 -2.613281 24.304688 0 28.488281 0 L 61.679688 0 C 65.863281 0 67.429688 -2.613281 67.429688 -6.796875 L 67.429688 -137.472656 C 67.429688 -141.65625 65.863281 -144.269531 61.679688 -144.269531 Z M 20.910156 -182.425781 C 20.910156 -169.097656 31.625 -158.382812 44.953125 -158.382812 C 58.28125 -158.382812 68.996094 -169.097656 68.996094 -182.425781 C 68.996094 -195.753906 58.28125 -206.472656 44.953125 -206.472656 C 31.625 -206.472656 20.910156 -195.753906 20.910156 -182.425781 Z M 20.910156 -182.425781 "/></g></g></g><g fill="#141516" fill-opacity="1"><g transform="translate(627.214273, 216.716956)"><g><path d="M 85.203125 2.613281 C 126.234375 2.613281 138.257812 -17.511719 138.257812 -60.894531 L 138.257812 -137.472656 C 138.257812 -141.65625 136.6875 -144.269531 132.507812 -144.269531 L 103.234375 -144.269531 C 101.929688 -144.269531 101.40625 -143.484375 101.40625 -142.4375 L 101.40625 -112.121094 C 101.40625 -110.292969 101.40625 -108.984375 103.234375 -106.894531 L 135.121094 -65.078125 L 135.121094 -60.894531 C 135.121094 -16.464844 118.917969 -1.046875 89.644531 -1.046875 L 85.203125 -1.046875 C 71.089844 -1.046875 63.507812 -12.285156 63.507812 -60.894531 L 63.507812 -137.472656 C 63.507812 -141.65625 61.941406 -144.269531 57.757812 -144.269531 L 20.125 -144.269531 C 15.941406 -144.269531 14.375 -141.65625 14.375 -137.472656 L 14.375 -60.894531 C 14.375 -17.511719 33.453125 2.613281 85.203125 2.613281 Z M 85.203125 2.613281 "/></g></g></g><g fill="#141516" fill-opacity="1"><g transform="translate(753.710163, 216.716956)"><g><path d="M 90.691406 -91.214844 C 69.519531 -97.222656 60.894531 -108.460938 60.894531 -121.792969 C 60.894531 -136.167969 73.179688 -143.222656 86.769531 -143.222656 L 92.78125 -143.222656 L 122.835938 -104.804688 C 125.972656 -100.621094 128.324219 -98.007812 131.199219 -98.007812 L 133.03125 -98.007812 C 135.90625 -98.007812 136.6875 -99.839844 136.6875 -102.710938 L 136.429688 -136.6875 C 136.429688 -140.871094 135.121094 -142.960938 130.679688 -143.484375 L 100.359375 -146.882812 L 85.464844 -146.882812 C 40.511719 -146.882812 16.988281 -129.632812 16.988281 -109.507812 C 16.988281 -85.726562 26.660156 -72.65625 74.226562 -58.28125 C 97.484375 -51.226562 100.882812 -43.644531 100.882812 -29.011719 C 100.882812 -14.636719 92.257812 -1.046875 75.007812 -1.046875 L 69.78125 -1.046875 L 31.886719 -52.269531 C 28.75 -56.453125 26.398438 -59.066406 23.523438 -59.066406 L 21.691406 -59.066406 C 18.816406 -59.066406 18.035156 -57.238281 18.035156 -54.363281 L 18.292969 -6.796875 C 18.292969 -2.613281 19.863281 -0.261719 24.042969 0 L 62.203125 2.613281 L 76.316406 2.613281 C 118.394531 2.613281 144.269531 -10.453125 144.269531 -41.816406 C 144.269531 -69.257812 126.757812 -81.019531 90.691406 -91.214844 Z M 90.691406 -91.214844 "/></g></g></g></svg>