<svg id="visual" viewBox="0 0 900 600" width="900" height="600" xmlns="http://www.w3.org/2000/svg" xmlns:xlink="http://www.w3.org/1999/xlink" version="1.1"><rect x="0" y="0" width="900" height="600" fill="#6AFF2A"></rect><path d="M0 83L10 84.3C20 85.7 40 88.3 60 86C80 83.7 100 76.3 120 70.2C140 64 160 59 180 68.8C200 78.7 220 103.3 240 116.5C260 129.7 280 131.3 300 122.7C320 114 340 95 360 83.8C380 72.7 400 69.3 420 77C440 84.7 460 103.3 480 106.2C500 109 520 96 540 85.3C560 74.7 580 66.3 600 64.5C620 62.7 640 67.3 660 76.8C680 86.3 700 100.7 720 98.8C740 97 760 79 780 74.8C800 70.7 820 80.3 840 84.5C860 88.7 880 87.3 890 86.7L900 86L900 0L890 0C880 0 860 0 840 0C820 0 800 0 780 0C760 0 740 0 720 0C700 0 680 0 660 0C640 0 620 0 600 0C580 0 560 0 540 0C520 0 500 0 480 0C460 0 440 0 420 0C400 0 380 0 360 0C340 0 320 0 300 0C280 0 260 0 240 0C220 0 200 0 180 0C160 0 140 0 120 0C100 0 80 0 60 0C40 0 20 0 10 0L0 0Z" fill="#000000" stroke-linecap="round" stroke-linejoin="miter"></path></svg>